<mxfile host="app.diagrams.net" modified="2024-04-18T22:40:33.071Z" agent="Mozilla/5.0 (Windows NT 10.0; Win64; x64) AppleWebKit/537.36 (KHTML, like Gecko) Chrome/124.0.0.0 Safari/537.36" version="24.2.5" etag="t3-RdPDXY6IFgpjtuLXp" type="github">
  <diagram name="PÃ¡gina-1" id="jJt3W6CdCUMx1D19Edmp">
    <mxGraphModel>
      <root>
        <mxCell id="0" />
        <mxCell id="1" parent="0" />
      </root>
    </mxGraphModel>
  </diagram>
</mxfile>
